<svg t="1631803790166" class="icon" viewBox="0 0 1024 1024" version="1.1" xmlns="http://www.w3.org/2000/svg" p-id="1498" width="200" height="200">
    <path d="M372.48 120.149333a42.666667 42.666667 0 0 0-60.330667-1.92l-213.333333 200.32-3.584 3.797334a42.666667 42.666667 0 0 0 3.498667 58.368l213.333333 201.173333 4.138667 3.413333a42.666667 42.666667 0 0 0 56.192-5.205333l3.413333-4.138667a42.666667 42.666667 0 0 0-5.162667-56.192L226.389333 383.786667h424.704a202.453333 202.453333 0 0 1 202.24 202.666666 202.496 202.496 0 0 1-192.981333 202.496l-9.258667 0.213334H149.333333a42.666667 42.666667 0 0 0-4.992 85.034666l4.992 0.298667h501.76c158.848 0 287.573333-128.981333 287.573334-288A287.786667 287.786667 0 0 0 661.205333 298.666667l-10.112-0.170667-406.144-0.042667 125.610667-118.016 3.669333-3.925333a42.666667 42.666667 0 0 0-1.749333-56.362667z" p-id="1499" fill="#bfbfbf"></path>
</svg>
