<?xml version="1.0" standalone="no"?><!DOCTYPE svg PUBLIC "-//W3C//DTD SVG 1.1//EN" "http://www.w3.org/Graphics/SVG/1.1/DTD/svg11.dtd"><svg t="1632728820498" class="icon" viewBox="0 0 1024 1024" version="1.1" xmlns="http://www.w3.org/2000/svg" p-id="5273" xmlns:xlink="http://www.w3.org/1999/xlink" width="200" height="200"><defs><style type="text/css"></style></defs><path d="M492.307692 915.692308c0-59.076923 27.569231-102.4 66.953846-128v-59.076923c-19.692308-13.784615-35.446154-35.446154-43.323076-59.076923-7.876923-33.476923 3.938462-70.892308 23.630769-98.461539 3.938462-5.907692 11.815385-11.815385 17.723077-19.692308 5.907692-5.907692 13.784615-11.815385 21.661538-13.784615 41.353846-21.661538 88.615385-37.415385 135.876923-37.415385 43.323077 0 80.738462 17.723077 106.338462 43.323077 37.415385-37.415385 76.8-45.292308 100.430769-45.292307 21.661538 0 43.323077 3.938462 61.046154 13.784615v-3.938462C984.615385 252.061538 771.938462 39.384615 512 39.384615S39.384615 252.061538 39.384615 512s210.707692 472.615385 468.676923 472.615385c-9.846154-19.692308-15.753846-41.353846-15.753846-68.923077z m393.846154-450.953846h-124.061538C758.153846 354.461538 732.553846 256 695.138462 181.169231c104.369231 59.076923 175.261538 163.446154 191.015384 283.569231zM559.261538 155.569231c53.169231 45.292308 100.430769 161.476923 108.307693 311.138461h-108.307693V155.569231zM137.846154 559.261538h124.061538c3.938462 112.246154 29.538462 208.738462 66.953846 283.569231-104.369231-57.107692-175.261538-161.476923-191.015384-283.569231z m124.061538-94.523076H137.846154c15.753846-122.092308 88.615385-224.492308 192.984615-283.569231-39.384615 74.830769-63.015385 173.292308-68.923077 283.569231z m202.83077 405.661538c-53.169231-45.292308-100.430769-161.476923-108.307693-311.138462h108.307693v311.138462z m0-405.661538h-108.307693c7.876923-147.692308 55.138462-263.876923 108.307693-311.138462v311.138462zM913.723077 708.923077c19.692308 0 61.046154-17.723077 61.046154-70.892308s-39.384615-57.107692-51.2-57.107692c-23.630769 0-47.261538 17.723077-66.953846 53.169231-21.661538 35.446154-45.292308 76.8-45.292308 76.8h-1.969231c-3.938462-25.6-9.846154-47.261538-11.815384-57.107693-3.938462-21.661538-29.538462-70.892308-82.707693-70.892307s-102.4 31.507692-102.4 31.507692c-9.846154 5.907692-15.753846 15.753846-15.753846 27.569231 0 17.723077 13.784615 33.476923 33.476923 33.476923 3.938462 0 9.846154-1.969231 13.784616-3.938462 0 0 41.353846-21.661538 49.230769 0 3.938462 5.907692 3.938462 13.784615 7.876923 21.661539 11.815385 35.446154 19.692308 76.8 27.569231 114.215384l-35.446154 49.23077s-39.384615-13.784615-59.076923-13.784616-61.046154 17.723077-61.046154 70.892308 39.384615 57.107692 51.2 57.107692c23.630769 0 47.261538-17.723077 66.953846-53.169231 19.692308-35.446154 43.323077-76.8 43.323077-76.8 5.907692 33.476923 11.815385 59.076923 15.753846 70.892308 13.784615 37.415385 43.323077 61.046154 84.676923 61.046154 0 0 43.323077 0 90.584616-27.569231 11.815385-3.938462 19.692308-17.723077 19.692307-29.538461 0-17.723077-13.784615-33.476923-33.476923-33.476923-3.938462 0-9.846154 1.969231-13.784615 3.938461 0 0-35.446154 19.692308-47.261539 3.938462-9.846154-15.753846-15.753846-37.415385-21.661538-66.953846-3.938462-23.630769-11.815385-51.2-17.723077-80.738462l35.446154-51.2c7.876923 1.969231 47.261538 17.723077 66.953846 17.723077z" p-id="5274"></path></svg>