<svg t="1633770102315" class="icon" viewBox="0 0 1024 1024" version="1.1" xmlns="http://www.w3.org/2000/svg" p-id="1242" width="200" height="200">
    <path d="M829.44 71.68H194.56A122.88 122.88 0 0 0 71.68 194.56v430.08a122.88 122.88 0 0 0 122.88 122.88h634.88a122.88 122.88 0 0 0 122.88-122.88V194.56A122.88 122.88 0 0 0 829.44 71.68z m81.92 552.96a81.92 81.92 0 0 1-81.92 81.92H194.56a81.92 81.92 0 0 1-81.92-81.92V194.56a81.92 81.92 0 0 1 81.92-81.92h634.88a81.92 81.92 0 0 1 81.92 81.92zM614.4 849.92a20.48 20.48 0 0 0 0-40.96H409.6a20.48 20.48 0 0 0 0 40.96zM757.76 911.36H266.24a20.48 20.48 0 0 0 0 40.96h491.52a20.48 20.48 0 0 0 0-40.96z" p-id="1243" fill="#515151"></path><path d="M753.5616 272.2816L542.72 483.0208 429.1584 369.5616a20.48 20.48 0 0 0-28.8768 0l-158.72 158.72a20.48 20.48 0 0 0 0 28.8768 20.48 20.48 0 0 0 28.8768 0L414.72 412.9792l113.5616 113.4592a20.48 20.48 0 0 0 28.8768 0l225.28-225.28a20.48 20.48 0 0 0-28.8768-28.8768z" p-id="1244" fill="#515151"></path>
</svg>
