<svg t="1629597866285" class="icon" viewBox="0 0 1024 1024" version="1.1" xmlns="http://www.w3.org/2000/svg" p-id="1209" width="200" height="200"><path d="M509.074286 212.845714a362.642286 362.642286 0 0 1 362.349714 348.379429v377.270857h61.147429a42.130286 42.130286 0 1 1 0 84.187429H90.477714a42.130286 42.130286 0 1 1 0-84.114286h56.173715V561.152A362.642286 362.642286 0 0 1 509.001143 212.845714z m-3.949715 105.325715a280.722286 280.722286 0 0 0-278.235428 243.053714v377.270857h239.177143v-95.451429a42.130286 42.130286 0 0 1 84.260571 0v95.451429h232.96V561.225143A280.722286 280.722286 0 0 0 505.124571 318.171429z m2.486858 96.548571a143.725714 143.725714 0 0 1 143.140571 143.140571A143.140571 143.140571 0 1 1 507.611429 414.72z m22.601142 89.234286a58.953143 58.953143 0 1 0-22.601142 113.371428 59.830857 59.830857 0 0 0 58.953142-58.88 58.953143 58.953143 0 0 0-36.352-54.491428z m375.442286-305.956572a42.130286 42.130286 0 0 1 56.173714 61.220572l-65.097142 59.465143a42.130286 42.130286 0 0 1-56.173715-61.147429l63.414857-60.050286zM70.582857 164.571429a42.130286 42.130286 0 0 1 44.032 17.261714l56.173714 62.902857a42.130286 42.130286 0 0 1-56.173714 59.977143L58.514286 241.883429a42.130286 42.130286 0 0 1 12.068571-77.312zM507.611429 0.950857c23.259429 0 42.130286 18.870857 42.130285 42.130286v80.237714a42.130286 42.130286 0 1 1-84.187428 0V43.154286c0-23.259429 18.797714-42.130286 42.057143-42.130286z" p-id="1210"></path></svg>